<?xml version="1.0" standalone="no"?>
<!DOCTYPE svg PUBLIC "-//W3C//DTD SVG 20010904//EN"
 "http://www.w3.org/TR/2001/REC-SVG-20010904/DTD/svg10.dtd">
<svg version="1.0" xmlns="http://www.w3.org/2000/svg"
 width="512.000000pt" height="512.000000pt" viewBox="0 0 512.000000 512.000000"
 preserveAspectRatio="xMidYMid meet">

<g transform="translate(0.000000,512.000000) scale(0.100000,-0.100000)"
fill="#000000" stroke="none">
<path d="M1111 4959 c-35 -10 -65 -20 -67 -22 -3 -3 155 -629 160 -634 1 -1
18 2 37 7 19 5 53 14 75 19 l42 11 -82 320 c-44 176 -85 319 -91 319 -5 -1
-39 -10 -74 -20z"/>
<path d="M3474 4937 c-25 -22 -29 -36 -50 -183 -13 -87 -24 -165 -24 -172 0
-7 -11 -24 -25 -37 -27 -28 -80 -34 -107 -12 -8 6 -57 68 -108 137 -51 69
-100 131 -108 138 -9 6 -31 12 -50 12 -28 0 -58 -18 -159 -92 l-123 -93 -173
-1 c-190 -1 -306 -20 -469 -74 -491 -164 -874 -581 -992 -1081 -14 -57 -28
-131 -31 -164 -11 -105 -14 -115 -39 -115 -50 0 -70 -36 -100 -183 -22 -102
-33 -137 -42 -133 -8 3 -60 38 -116 78 -151 106 -144 108 -319 -68 -117 -118
-139 -145 -139 -170 0 -22 24 -65 81 -148 44 -65 79 -119 77 -121 -2 -2 -64
-16 -138 -31 -190 -40 -180 -25 -180 -264 0 -239 -10 -224 180 -264 74 -15
136 -29 138 -31 2 -2 -32 -57 -77 -122 -56 -82 -81 -126 -81 -147 0 -24 22
-52 128 -158 136 -139 170 -163 209 -153 14 3 70 38 126 76 55 39 106 73 112
75 8 3 21 -41 41 -133 40 -193 25 -183 262 -183 242 0 222 -15 267 195 14 65
28 121 30 123 2 2 57 -32 122 -77 64 -45 126 -81 136 -81 30 0 59 19 124 82
l61 61 4 -149 c4 -179 20 -224 103 -304 l54 -50 3 -257 c3 -251 4 -259 28
-308 31 -64 101 -134 165 -165 49 -24 56 -25 285 -25 229 0 236 1 285 25 64
31 134 101 165 165 24 49 25 57 28 308 l3 257 54 50 c91 87 98 114 105 390 7
260 12 283 77 378 25 36 68 76 132 123 53 38 112 82 130 98 l35 29 -53 61 -53
61 -37 -30 c-20 -17 -70 -54 -111 -84 -103 -73 -172 -146 -214 -226 -57 -108
-66 -159 -66 -380 0 -107 -5 -211 -10 -230 -12 -45 -65 -97 -111 -110 -44 -13
-673 -13 -718 0 -35 10 -84 50 -104 85 -8 13 -14 107 -18 260 -5 225 -7 244
-31 306 -38 103 -107 191 -202 260 -162 119 -240 186 -308 264 -158 182 -261
384 -313 615 -26 115 -31 383 -11 507 84 492 437 903 910 1058 100 33 248 61
359 68 51 3 57 2 57 -15 0 -28 14 -51 112 -180 114 -152 122 -172 80 -220 -20
-23 -72 -23 -237 2 -164 25 -168 25 -200 -3 -26 -21 -29 -36 -61 -252 -36
-247 -40 -296 -24 -325 17 -31 37 -37 200 -60 182 -25 204 -32 220 -71 23 -53
8 -72 -140 -184 -77 -58 -144 -114 -151 -126 -21 -41 1 -83 154 -284 155 -204
177 -225 228 -212 14 4 85 51 159 107 143 107 167 116 214 79 32 -25 33 -46 6
-224 -25 -166 -25 -178 3 -211 22 -26 35 -29 253 -60 304 -44 301 -44 334 -8
23 27 29 48 49 195 13 90 27 171 32 180 12 23 64 42 94 35 17 -4 58 -51 130
-147 99 -130 130 -159 170 -159 23 0 429 308 443 336 8 14 11 36 8 48 -3 12
-48 78 -99 147 -52 68 -99 134 -105 146 -15 28 -15 64 2 85 26 35 55 36 230
11 93 -13 180 -22 192 -19 13 4 31 17 39 29 13 20 85 468 85 528 0 10 -10 30
-22 44 -21 24 -37 28 -198 51 -158 22 -177 27 -197 50 -32 36 -30 83 5 116 15
14 74 60 132 103 186 138 187 122 -10 384 -82 110 -161 207 -175 217 -15 10
-34 14 -49 10 -13 -3 -88 -53 -166 -111 -78 -58 -148 -105 -155 -105 -28 0
-65 20 -80 44 -15 23 -15 36 9 196 15 105 21 181 16 194 -18 47 -37 53 -294
90 -137 20 -255 36 -262 36 -7 0 -25 -10 -40 -23z m422 -199 c3 -4 -2 -65 -12
-138 -15 -108 -16 -138 -6 -176 38 -140 172 -215 313 -173 20 7 86 47 144 91
59 44 111 76 115 71 4 -4 42 -55 85 -113 43 -58 82 -110 87 -117 6 -8 -17 -31
-74 -74 -153 -115 -185 -157 -195 -255 -7 -66 13 -124 61 -176 52 -56 100 -75
240 -95 124 -17 126 -17 126 -42 -1 -42 -36 -270 -43 -278 -4 -3 -60 1 -124
10 -148 21 -151 21 -218 -4 -98 -37 -155 -117 -154 -219 0 -79 16 -113 102
-228 42 -55 77 -103 77 -105 0 -4 -211 -165 -237 -180 -7 -5 -34 23 -74 75
-110 147 -148 178 -237 193 -74 12 -139 -10 -199 -70 -60 -61 -74 -101 -94
-263 -12 -97 -14 -103 -33 -98 -12 2 -81 12 -153 22 -154 21 -142 3 -117 171
9 59 13 125 10 146 -25 156 -193 251 -333 188 -22 -11 -83 -51 -135 -90 -52
-39 -97 -71 -100 -71 -5 0 -163 207 -181 236 -4 7 30 40 87 83 110 82 130 102
159 156 29 56 29 155 0 211 -47 89 -117 125 -288 150 -66 9 -121 17 -121 18
-1 0 8 69 20 151 l22 150 29 -1 c17 0 79 -6 138 -14 87 -11 117 -12 155 -2
108 29 182 123 182 231 -1 73 -21 116 -111 235 -40 55 -68 100 -63 105 14 12
219 167 231 174 6 4 45 -38 92 -101 63 -85 91 -115 130 -136 99 -53 201 -44
276 25 61 57 81 105 100 250 l18 125 148 -21 c82 -12 152 -24 155 -27z m-2805
-2001 c11 -44 21 -83 22 -89 1 -5 -22 -16 -52 -24 -80 -21 -164 -70 -223 -130
-104 -107 -144 -210 -135 -358 6 -112 32 -185 95 -269 94 -123 221 -182 387
-181 85 0 110 4 164 27 85 36 163 96 215 166 l43 58 95 -71 c99 -73 145 -122
180 -190 l20 -39 -83 -83 c-46 -46 -86 -84 -90 -84 -3 0 -50 30 -104 66 -98
65 -100 66 -156 62 -43 -3 -66 -11 -94 -32 -46 -35 -51 -48 -79 -177 l-22
-104 -95 -3 -95 -3 -22 107 c-12 59 -30 121 -40 138 -25 42 -87 76 -140 76
-51 0 -60 -4 -170 -78 l-83 -56 -69 69 c-39 38 -70 73 -70 77 0 4 29 50 65
103 75 110 82 149 42 226 -29 56 -73 79 -200 104 l-97 19 0 96 0 96 97 19
c129 25 172 48 201 105 39 77 32 115 -43 225 -36 53 -65 99 -65 103 0 4 31 39
70 77 l69 69 83 -56 c109 -73 120 -78 168 -78 82 0 151 57 167 140 l7 35 9
-40 c5 -22 17 -75 28 -118z m115 -304 c91 -163 154 -254 232 -335 l45 -47 -26
-44 c-33 -56 -97 -113 -156 -140 -69 -32 -178 -30 -252 5 -107 49 -173 142
-186 258 -15 150 70 280 220 331 81 28 92 26 123 -28z m1674 -1633 l0 -80
-320 0 -320 0 0 80 0 80 320 0 320 0 0 -80z m0 -293 c0 -74 -33 -134 -90 -164
-41 -22 -54 -23 -230 -23 -176 0 -189 1 -230 23 -57 30 -90 90 -90 164 l0 53
320 0 320 0 0 -53z"/>
<path d="M3440 4206 c-279 -72 -478 -303 -497 -577 -27 -398 288 -713 686
-686 254 17 473 191 562 447 19 54 23 86 23 185 1 105 -3 129 -26 193 -38 105
-83 175 -164 256 -127 128 -259 187 -429 192 -64 2 -120 -2 -155 -10z m296
-176 c153 -53 270 -185 309 -352 21 -88 19 -136 -9 -222 -54 -171 -191 -299
-370 -342 -58 -15 -79 -16 -144 -5 -246 37 -411 222 -414 461 -3 217 124 395
326 460 85 27 223 27 302 0z"/>
<path d="M407 4490 c-21 -28 -40 -57 -43 -64 -4 -10 86 -79 271 -211 152 -109
278 -195 281 -193 16 16 84 113 84 119 0 8 -542 399 -551 399 -3 0 -22 -23
-42 -50z"/>
<path d="M1875 4007 c-372 -294 -527 -796 -381 -1230 57 -169 155 -326 285
-456 94 -94 207 -170 366 -246 99 -47 130 -68 180 -119 84 -85 128 -179 150
-318 l6 -38 81 0 81 0 -5 63 c-11 126 -79 278 -174 385 -66 75 -139 126 -268
188 -171 81 -255 144 -362 269 -131 155 -205 330 -224 532 -21 226 52 478 190
658 40 51 158 168 218 215 l32 25 -42 68 c-24 37 -45 67 -48 67 -3 0 -41 -28
-85 -63z"/>
<path d="M540 3678 c-173 -44 -316 -80 -317 -82 -1 -1 2 -18 7 -37 5 -19 14
-53 19 -75 l11 -42 317 80 c175 44 319 80 320 82 3 2 -34 147 -39 150 -2 2
-145 -33 -318 -76z"/>
<path d="M4080 1920 l0 -80 280 0 280 0 0 80 0 80 -280 0 -280 0 0 -80z"/>
<path d="M4000 1520 l-53 -61 34 -28 c19 -16 126 -106 239 -200 l205 -171 52
57 c29 32 51 61 50 64 -1 4 -101 89 -222 189 -121 101 -227 189 -236 197 -14
12 -23 7 -69 -47z"/>
<path d="M2480 1320 l0 -120 80 0 80 0 0 120 0 120 -80 0 -80 0 0 -120z"/>
<path d="M3600 1080 l0 -280 80 0 80 0 0 280 0 280 -80 0 -80 0 0 -280z"/>
</g>
</svg>
